[img]http://img62.imageshack.us/img62/3336/americanpietwo.jpg[/img]

[b][size=200][color=black]PLOT[/color][/size][/b]

[code]The continuing bawdy adventures of a group of friends reuniting after their first year of college.[/code]

[b][size=200][color=black]IMDB[/color][/size][/b]

[code]http://www.imdb.com/title/tt0252866/[/code]

[b][size=200][color=black]MOVIE INFO[/color][/size][/b]

[code]American Pie 2 [2001] DvdRip x264 AAC-V3nom

Format                           : MPEG-4
Format profile                   : Base Media / Version 2
Codec ID                         : mp42
File size                        : 395 MiB
Duration                         : 1h 46mn
Overall bit rate                 : 520 Kbps
Encoded date                     : UTC 2012-10-20 11:22:29
Tagged date                      : UTC 2012-10-20 11:44:48
Writing application              : HandBrake 0.9.8 2012071700

Video
ID                               : 1
Format                           : AVC
Format/Info                      : Advanced Video Codec
Format profile                   : Main@L2.2
Format settings, CABAC           : Yes
Format settings, ReFrames        : 4 frames
Codec ID                         : avc1
Codec ID/Info                    : Advanced Video Coding
Duration                         : 1h 46mn
Bit rate mode                    : Variable
Bit rate                         : 400 Kbps
Width                            : 608 pixels
Height                           : 336 pixels
Display aspect ratio             : 16:9
Frame rate mode                  : Variable
Frame rate                       : 25.000 fps
Minimum frame rate               : 12.500 fps
Maximum frame rate               : 25.000 fps
Color space                      : YUV
Chroma subsampling               : 4:2:0
Bit depth                        : 8 bits
Scan type                        : Progressive
Bits/(Pixel*Frame)               : 0.078
Stream size                      : 306 MiB (78%)
Writing library                  : x264 

Audio
ID                               : 2
Format                           : AAC
Format/Info                      : Advanced Audio Codec
Format profile                   : LC
Codec ID                         : 40
Duration                         : 1h 46mn
Bit rate mode                    : Variable
Bit rate                         : 112 Kbps
Maximum bit rate                 : 209 Kbps
Channel(s)                       : 2 channels
Channel positions                : Front: L R
Sampling rate                    : 48.0 KHz
Compression mode                 : Lossy
Stream size                      : 85.0 MiB (22%)
Encoded date                     : UTC 2012-10-20 11:22:29
Tagged date                      : UTC 2012-10-20 11:44:44[/code]

[b][size=200][color=black]SCREENSHOTS[/color][/size][/b]

[img]http://img407.imageshack.us/img407/9786/americanpie22001dvdripx.jpg[/img]

[img]http://kastatic.com/i2/users/133df62bbf28e62494bb17fe11078f1a.gif[/img][img]http://kastatic.com/i2/users/133df62bbf28e62494bb17fe11078f1a.gif[/img]